<?xml version="1.0" standalone="no"?>
<!DOCTYPE svg PUBLIC "-//W3C//DTD SVG 20010904//EN"
 "http://www.w3.org/TR/2001/REC-SVG-20010904/DTD/svg10.dtd">
<svg version="1.0" xmlns="http://www.w3.org/2000/svg"
 width="30.000000pt" height="30.000000pt" viewBox="0 0 30.000000 30.000000"
 preserveAspectRatio="xMidYMid meet">

<g transform="translate(0.000000,30.000000) scale(0.100000,-0.100000)"
fill="#000000" stroke="none">
<path d="M150 260 c0 -5 9 -10 21 -10 11 0 34 -13 50 -29 16 -16 29 -39 29
-50 0 -12 5 -21 10 -21 15 0 12 27 -5 60 -22 42 -105 81 -105 50z"/>
<path d="M50 229 c-17 -30 -6 -59 39 -110 54 -62 101 -87 135 -71 14 6 26 18
26 26 0 18 -53 40 -77 32 -25 -8 -76 44 -67 68 8 21 -14 76 -32 76 -7 0 -18
-9 -24 -21z"/>
<path d="M150 221 c0 -5 11 -12 25 -15 15 -4 27 -16 31 -31 7 -29 24 -34 24
-7 0 10 -10 28 -23 40 -23 22 -57 30 -57 13z"/>
<path d="M150 184 c0 -10 31 -36 37 -31 10 10 -6 37 -22 37 -8 0 -15 -3 -15
-6z"/>
</g>
</svg>
